<mxfile host="app.diagrams.net" agent="Mozilla/5.0 (Windows NT 10.0; Win64; x64) AppleWebKit/537.36 (KHTML, like Gecko) Chrome/127.0.0.0 Safari/537.36 OPR/113.0.0.0 (Edition Yx GX 03)" version="24.7.17">
  <diagram name="Страница — 1" id="ojG1zT66NYO1LHHyJgvD">
    <mxGraphModel dx="3980" dy="2209" grid="1" gridSize="10" guides="1" tooltips="1" connect="1" arrows="1" fold="1" page="1" pageScale="1" pageWidth="827" pageHeight="1169" math="0" shadow="0">
      <root>
        <mxCell id="0" />
        <mxCell id="1" parent="0" />
        <mxCell id="pDkKP-4BY08iYfkUdl_Q-38" style="edgeStyle=orthogonalEdgeStyle;rounded=0;orthogonalLoop=1;jettySize=auto;html=1;entryX=0.5;entryY=0;entryDx=0;entryDy=0;" parent="1" source="pDkKP-4BY08iYfkUdl_Q-5" target="pDkKP-4BY08iYfkUdl_Q-30" edge="1">
          <mxGeometry relative="1" as="geometry" />
        </mxCell>
        <mxCell id="pDkKP-4BY08iYfkUdl_Q-5" value="Patient" style="shape=umlActor;verticalLabelPosition=bottom;verticalAlign=top;html=1;outlineConnect=0;" parent="1" vertex="1">
          <mxGeometry x="384" y="260" width="30" height="60" as="geometry" />
        </mxCell>
        <mxCell id="umXWh4qc1a0GtXUPau7t-3" style="edgeStyle=none;curved=1;rounded=0;orthogonalLoop=1;jettySize=auto;html=1;exitX=0.5;exitY=1;exitDx=0;exitDy=0;entryX=0;entryY=0.5;entryDx=0;entryDy=0;fontSize=12;startSize=8;endSize=8;" parent="1" source="pDkKP-4BY08iYfkUdl_Q-18" target="pDkKP-4BY08iYfkUdl_Q-35" edge="1">
          <mxGeometry relative="1" as="geometry" />
        </mxCell>
        <mxCell id="pDkKP-4BY08iYfkUdl_Q-18" value="Сердечный страж Устройство&amp;nbsp;" style="swimlane;whiteSpace=wrap;html=1;" parent="1" vertex="1">
          <mxGeometry x="70" y="385" width="250" height="140" as="geometry" />
        </mxCell>
        <mxCell id="pDkKP-4BY08iYfkUdl_Q-24" value="ЧСС Датчик: int" style="text;html=1;align=center;verticalAlign=middle;whiteSpace=wrap;rounded=0;" parent="pDkKP-4BY08iYfkUdl_Q-18" vertex="1">
          <mxGeometry x="10" y="40" width="90" height="30" as="geometry" />
        </mxCell>
        <mxCell id="pDkKP-4BY08iYfkUdl_Q-26" value="Температура тела Датчик: float" style="text;html=1;align=center;verticalAlign=middle;whiteSpace=wrap;rounded=0;" parent="pDkKP-4BY08iYfkUdl_Q-18" vertex="1">
          <mxGeometry y="70" width="200" height="30" as="geometry" />
        </mxCell>
        <mxCell id="pDkKP-4BY08iYfkUdl_Q-27" value="Дыхание: int&amp;nbsp;&amp;nbsp;" style="text;html=1;align=center;verticalAlign=middle;whiteSpace=wrap;rounded=0;" parent="pDkKP-4BY08iYfkUdl_Q-18" vertex="1">
          <mxGeometry y="100" width="100" height="30" as="geometry" />
        </mxCell>
        <mxCell id="umXWh4qc1a0GtXUPau7t-4" style="edgeStyle=none;curved=1;rounded=0;orthogonalLoop=1;jettySize=auto;html=1;exitX=0.5;exitY=1;exitDx=0;exitDy=0;entryX=1;entryY=0.5;entryDx=0;entryDy=0;fontSize=12;startSize=8;endSize=8;" parent="1" source="pDkKP-4BY08iYfkUdl_Q-30" target="pDkKP-4BY08iYfkUdl_Q-35" edge="1">
          <mxGeometry relative="1" as="geometry" />
        </mxCell>
        <mxCell id="pDkKP-4BY08iYfkUdl_Q-30" value="Умный палец Устройство&amp;nbsp;" style="swimlane;whiteSpace=wrap;html=1;" parent="1" vertex="1">
          <mxGeometry x="450" y="390" width="250" height="130" as="geometry" />
        </mxCell>
        <mxCell id="pDkKP-4BY08iYfkUdl_Q-31" value="Глюкозный Датчик: int" style="text;html=1;align=center;verticalAlign=middle;whiteSpace=wrap;rounded=0;" parent="pDkKP-4BY08iYfkUdl_Q-30" vertex="1">
          <mxGeometry x="9" y="34" width="130" height="30" as="geometry" />
        </mxCell>
        <mxCell id="pDkKP-4BY08iYfkUdl_Q-32" value="Верхнее АД Датчик: int" style="text;html=1;align=center;verticalAlign=middle;whiteSpace=wrap;rounded=0;" parent="pDkKP-4BY08iYfkUdl_Q-30" vertex="1">
          <mxGeometry y="64" width="160" height="30" as="geometry" />
        </mxCell>
        <mxCell id="pDkKP-4BY08iYfkUdl_Q-34" value="Нижнее АД: int&amp;nbsp;&amp;nbsp;" style="text;html=1;align=center;verticalAlign=middle;whiteSpace=wrap;rounded=0;" parent="pDkKP-4BY08iYfkUdl_Q-30" vertex="1">
          <mxGeometry x="9" y="94" width="105" height="30" as="geometry" />
        </mxCell>
        <mxCell id="umXWh4qc1a0GtXUPau7t-41" style="edgeStyle=none;curved=1;rounded=0;orthogonalLoop=1;jettySize=auto;html=1;exitX=0.5;exitY=1;exitDx=0;exitDy=0;fontSize=12;startSize=8;endSize=8;" parent="1" source="pDkKP-4BY08iYfkUdl_Q-35" edge="1">
          <mxGeometry relative="1" as="geometry">
            <mxPoint x="390.25" y="680" as="targetPoint" />
          </mxGeometry>
        </mxCell>
        <mxCell id="pDkKP-4BY08iYfkUdl_Q-35" value="&lt;font style=&quot;font-size: 25px;&quot;&gt;&lt;b&gt;OPC Server&lt;/b&gt;&lt;/font&gt;" style="rounded=0;whiteSpace=wrap;html=1;" parent="1" vertex="1">
          <mxGeometry x="270" y="560" width="240" height="50" as="geometry" />
        </mxCell>
        <mxCell id="pDkKP-4BY08iYfkUdl_Q-37" style="edgeStyle=orthogonalEdgeStyle;rounded=0;orthogonalLoop=1;jettySize=auto;html=1;entryX=0.468;entryY=0.036;entryDx=0;entryDy=0;entryPerimeter=0;" parent="1" source="pDkKP-4BY08iYfkUdl_Q-5" target="pDkKP-4BY08iYfkUdl_Q-18" edge="1">
          <mxGeometry relative="1" as="geometry" />
        </mxCell>
        <mxCell id="pDkKP-4BY08iYfkUdl_Q-49" value="БД" style="rounded=0;whiteSpace=wrap;html=1;" parent="1" vertex="1">
          <mxGeometry x="620" y="740" width="120" height="60" as="geometry" />
        </mxCell>
        <mxCell id="x-liXssnm1_QA_zKYlLS-4" style="edgeStyle=orthogonalEdgeStyle;rounded=0;orthogonalLoop=1;jettySize=auto;html=1;exitX=0.5;exitY=1;exitDx=0;exitDy=0;entryX=0.5;entryY=0;entryDx=0;entryDy=0;" parent="1" source="pDkKP-4BY08iYfkUdl_Q-50" target="pDkKP-4BY08iYfkUdl_Q-61" edge="1">
          <mxGeometry relative="1" as="geometry" />
        </mxCell>
        <mxCell id="pDkKP-4BY08iYfkUdl_Q-50" value="Сервис модели машинного обучения" style="rounded=0;whiteSpace=wrap;html=1;" parent="1" vertex="1">
          <mxGeometry x="96.5" y="840" width="187" height="60" as="geometry" />
        </mxCell>
        <mxCell id="pDkKP-4BY08iYfkUdl_Q-69" style="edgeStyle=orthogonalEdgeStyle;rounded=0;orthogonalLoop=1;jettySize=auto;html=1;exitX=0;exitY=0.5;exitDx=0;exitDy=0;entryX=1;entryY=0.5;entryDx=0;entryDy=0;" parent="1" source="pDkKP-4BY08iYfkUdl_Q-52" target="pDkKP-4BY08iYfkUdl_Q-61" edge="1">
          <mxGeometry relative="1" as="geometry" />
        </mxCell>
        <mxCell id="pDkKP-4BY08iYfkUdl_Q-52" value="Сервис вызова скорой помощи" style="rounded=0;whiteSpace=wrap;html=1;" parent="1" vertex="1">
          <mxGeometry x="430" y="1020" width="146" height="60" as="geometry" />
        </mxCell>
        <mxCell id="pDkKP-4BY08iYfkUdl_Q-66" style="edgeStyle=orthogonalEdgeStyle;rounded=0;orthogonalLoop=1;jettySize=auto;html=1;exitX=0;exitY=0.5;exitDx=0;exitDy=0;entryX=0;entryY=0.5;entryDx=0;entryDy=0;" parent="1" source="pDkKP-4BY08iYfkUdl_Q-58" target="pDkKP-4BY08iYfkUdl_Q-61" edge="1">
          <mxGeometry relative="1" as="geometry" />
        </mxCell>
        <mxCell id="x-liXssnm1_QA_zKYlLS-5" style="edgeStyle=orthogonalEdgeStyle;rounded=0;orthogonalLoop=1;jettySize=auto;html=1;exitX=0.5;exitY=1;exitDx=0;exitDy=0;entryX=0.5;entryY=0;entryDx=0;entryDy=0;" parent="1" source="pDkKP-4BY08iYfkUdl_Q-58" target="pDkKP-4BY08iYfkUdl_Q-50" edge="1">
          <mxGeometry relative="1" as="geometry" />
        </mxCell>
        <mxCell id="pDkKP-4BY08iYfkUdl_Q-58" value="Сервис принятия решений" style="rounded=0;whiteSpace=wrap;html=1;" parent="1" vertex="1">
          <mxGeometry x="80" y="690" width="170" height="60" as="geometry" />
        </mxCell>
        <mxCell id="pDkKP-4BY08iYfkUdl_Q-61" value="Брокер сообщений" style="rounded=0;whiteSpace=wrap;html=1;" parent="1" vertex="1">
          <mxGeometry x="180" y="1020" width="120" height="60" as="geometry" />
        </mxCell>
        <mxCell id="pDkKP-4BY08iYfkUdl_Q-65" style="edgeStyle=orthogonalEdgeStyle;rounded=0;orthogonalLoop=1;jettySize=auto;html=1;exitX=1;exitY=0.5;exitDx=0;exitDy=0;entryX=0;entryY=0.5;entryDx=0;entryDy=0;" parent="1" source="pDkKP-4BY08iYfkUdl_Q-63" target="pDkKP-4BY08iYfkUdl_Q-49" edge="1">
          <mxGeometry relative="1" as="geometry" />
        </mxCell>
        <mxCell id="pDkKP-4BY08iYfkUdl_Q-74" style="edgeStyle=orthogonalEdgeStyle;rounded=0;orthogonalLoop=1;jettySize=auto;html=1;exitX=0.5;exitY=1;exitDx=0;exitDy=0;entryX=1;entryY=0.25;entryDx=0;entryDy=0;" parent="1" source="pDkKP-4BY08iYfkUdl_Q-63" target="pDkKP-4BY08iYfkUdl_Q-61" edge="1">
          <mxGeometry relative="1" as="geometry" />
        </mxCell>
        <mxCell id="umXWh4qc1a0GtXUPau7t-19" style="edgeStyle=none;curved=1;rounded=0;orthogonalLoop=1;jettySize=auto;html=1;exitX=0;exitY=0.5;exitDx=0;exitDy=0;entryX=1;entryY=0.5;entryDx=0;entryDy=0;fontSize=12;startSize=8;endSize=8;" parent="1" source="pDkKP-4BY08iYfkUdl_Q-63" target="pDkKP-4BY08iYfkUdl_Q-58" edge="1">
          <mxGeometry relative="1" as="geometry" />
        </mxCell>
        <mxCell id="pDkKP-4BY08iYfkUdl_Q-63" value="Юзер сервис" style="rounded=0;whiteSpace=wrap;html=1;" parent="1" vertex="1">
          <mxGeometry x="354" y="690" width="120" height="60" as="geometry" />
        </mxCell>
        <mxCell id="pDkKP-4BY08iYfkUdl_Q-70" style="edgeStyle=orthogonalEdgeStyle;rounded=0;orthogonalLoop=1;jettySize=auto;html=1;exitX=0.5;exitY=0;exitDx=0;exitDy=0;entryX=0.633;entryY=1;entryDx=0;entryDy=0;entryPerimeter=0;" parent="1" source="pDkKP-4BY08iYfkUdl_Q-52" target="pDkKP-4BY08iYfkUdl_Q-63" edge="1">
          <mxGeometry relative="1" as="geometry" />
        </mxCell>
        <mxCell id="pDkKP-4BY08iYfkUdl_Q-71" value="Сервис для получения данных о человеке" style="rounded=0;whiteSpace=wrap;html=1;" parent="1" vertex="1">
          <mxGeometry x="640" y="960" width="120" height="60" as="geometry" />
        </mxCell>
        <mxCell id="pDkKP-4BY08iYfkUdl_Q-75" value="Редис" style="rounded=0;whiteSpace=wrap;html=1;" parent="1" vertex="1">
          <mxGeometry x="560" y="620" width="120" height="60" as="geometry" />
        </mxCell>
        <mxCell id="pDkKP-4BY08iYfkUdl_Q-78" style="edgeStyle=orthogonalEdgeStyle;rounded=0;orthogonalLoop=1;jettySize=auto;html=1;exitX=0.5;exitY=0;exitDx=0;exitDy=0;entryX=0.892;entryY=1.083;entryDx=0;entryDy=0;entryPerimeter=0;" parent="1" source="pDkKP-4BY08iYfkUdl_Q-71" target="pDkKP-4BY08iYfkUdl_Q-63" edge="1">
          <mxGeometry relative="1" as="geometry" />
        </mxCell>
        <mxCell id="KHbs0NxyBfRusgrp2J0M-3" style="edgeStyle=orthogonalEdgeStyle;rounded=0;orthogonalLoop=1;jettySize=auto;html=1;" parent="1" source="KHbs0NxyBfRusgrp2J0M-1" target="pDkKP-4BY08iYfkUdl_Q-61" edge="1">
          <mxGeometry relative="1" as="geometry" />
        </mxCell>
        <mxCell id="KHbs0NxyBfRusgrp2J0M-13" style="edgeStyle=orthogonalEdgeStyle;rounded=0;orthogonalLoop=1;jettySize=auto;html=1;" parent="1" source="KHbs0NxyBfRusgrp2J0M-1" edge="1">
          <mxGeometry relative="1" as="geometry">
            <mxPoint x="390" y="1280" as="targetPoint" />
          </mxGeometry>
        </mxCell>
        <mxCell id="x-liXssnm1_QA_zKYlLS-2" style="edgeStyle=orthogonalEdgeStyle;rounded=0;orthogonalLoop=1;jettySize=auto;html=1;exitX=1;exitY=0.5;exitDx=0;exitDy=0;" parent="1" source="KHbs0NxyBfRusgrp2J0M-1" edge="1">
          <mxGeometry relative="1" as="geometry">
            <mxPoint x="560" y="1160" as="targetPoint" />
          </mxGeometry>
        </mxCell>
        <mxCell id="x-liXssnm1_QA_zKYlLS-3" style="edgeStyle=orthogonalEdgeStyle;rounded=0;orthogonalLoop=1;jettySize=auto;html=1;exitX=0;exitY=1;exitDx=0;exitDy=0;" parent="1" source="KHbs0NxyBfRusgrp2J0M-1" edge="1">
          <mxGeometry relative="1" as="geometry">
            <mxPoint x="400" y="250" as="targetPoint" />
            <Array as="points">
              <mxPoint x="20" y="1160" />
              <mxPoint x="20" y="200" />
              <mxPoint x="400" y="200" />
            </Array>
          </mxGeometry>
        </mxCell>
        <mxCell id="KHbs0NxyBfRusgrp2J0M-1" value="Сервис Уведомлений" style="rounded=0;whiteSpace=wrap;html=1;" parent="1" vertex="1">
          <mxGeometry x="330" y="1100" width="120" height="60" as="geometry" />
        </mxCell>
        <mxCell id="KHbs0NxyBfRusgrp2J0M-20" style="edgeStyle=orthogonalEdgeStyle;rounded=0;orthogonalLoop=1;jettySize=auto;html=1;entryX=0.75;entryY=1;entryDx=0;entryDy=0;" parent="1" source="KHbs0NxyBfRusgrp2J0M-6" target="pDkKP-4BY08iYfkUdl_Q-71" edge="1">
          <mxGeometry relative="1" as="geometry" />
        </mxCell>
        <mxCell id="KHbs0NxyBfRusgrp2J0M-6" value="Doctor" style="shape=umlActor;verticalLabelPosition=bottom;verticalAlign=top;html=1;outlineConnect=0;" parent="1" vertex="1">
          <mxGeometry x="570" y="1130" width="30" height="60" as="geometry" />
        </mxCell>
        <mxCell id="KHbs0NxyBfRusgrp2J0M-11" value="Nurse" style="shape=umlActor;verticalLabelPosition=bottom;verticalAlign=top;html=1;outlineConnect=0;" parent="1" vertex="1">
          <mxGeometry x="375" y="1300" width="30" height="60" as="geometry" />
        </mxCell>
        <mxCell id="KHbs0NxyBfRusgrp2J0M-21" style="edgeStyle=orthogonalEdgeStyle;rounded=0;orthogonalLoop=1;jettySize=auto;html=1;entryX=0.883;entryY=0.967;entryDx=0;entryDy=0;entryPerimeter=0;" parent="1" source="KHbs0NxyBfRusgrp2J0M-11" target="pDkKP-4BY08iYfkUdl_Q-71" edge="1">
          <mxGeometry relative="1" as="geometry" />
        </mxCell>
        <mxCell id="x-liXssnm1_QA_zKYlLS-1" value="" style="endArrow=classic;startArrow=classic;html=1;rounded=0;entryX=0;entryY=0.5;entryDx=0;entryDy=0;" parent="1" target="pDkKP-4BY08iYfkUdl_Q-75" edge="1">
          <mxGeometry width="50" height="50" relative="1" as="geometry">
            <mxPoint x="440" y="680" as="sourcePoint" />
            <mxPoint x="510" y="630" as="targetPoint" />
            <Array as="points">
              <mxPoint x="440" y="660" />
              <mxPoint x="440" y="650" />
            </Array>
          </mxGeometry>
        </mxCell>
        <mxCell id="umXWh4qc1a0GtXUPau7t-10" value="OPC ua" style="text;html=1;align=center;verticalAlign=middle;whiteSpace=wrap;rounded=0;fontSize=16;" parent="1" vertex="1">
          <mxGeometry x="210" y="260" width="60" height="30" as="geometry" />
        </mxCell>
        <mxCell id="umXWh4qc1a0GtXUPau7t-11" value="OPC ua" style="text;html=1;align=center;verticalAlign=middle;whiteSpace=wrap;rounded=0;fontSize=16;" parent="1" vertex="1">
          <mxGeometry x="490" y="260" width="60" height="30" as="geometry" />
        </mxCell>
        <mxCell id="umXWh4qc1a0GtXUPau7t-12" value="OPC ua" style="text;html=1;align=center;verticalAlign=middle;whiteSpace=wrap;rounded=0;fontSize=16;rotation=45;" parent="1" vertex="1">
          <mxGeometry x="185" y="550" width="65" height="30" as="geometry" />
        </mxCell>
        <mxCell id="umXWh4qc1a0GtXUPau7t-16" value="OPC ua" style="text;html=1;align=center;verticalAlign=middle;whiteSpace=wrap;rounded=0;fontSize=16;rotation=-40;" parent="1" vertex="1">
          <mxGeometry x="535" y="540" width="65" height="30" as="geometry" />
        </mxCell>
        <mxCell id="umXWh4qc1a0GtXUPau7t-20" value="HTTP" style="text;html=1;align=center;verticalAlign=middle;whiteSpace=wrap;rounded=0;fontSize=16;" parent="1" vertex="1">
          <mxGeometry x="280" y="690" width="60" height="30" as="geometry" />
        </mxCell>
        <mxCell id="umXWh4qc1a0GtXUPau7t-22" value="HTTP" style="text;html=1;align=center;verticalAlign=middle;whiteSpace=wrap;rounded=0;fontSize=16;rotation=-90;" parent="1" vertex="1">
          <mxGeometry x="460" y="910" width="60" height="30" as="geometry" />
        </mxCell>
        <mxCell id="umXWh4qc1a0GtXUPau7t-23" value="HTTP" style="text;html=1;align=center;verticalAlign=middle;whiteSpace=wrap;rounded=0;fontSize=16;" parent="1" vertex="1">
          <mxGeometry x="580" y="830" width="60" height="30" as="geometry" />
        </mxCell>
        <mxCell id="umXWh4qc1a0GtXUPau7t-24" value="HTTP" style="text;html=1;align=center;verticalAlign=middle;whiteSpace=wrap;rounded=0;fontSize=16;" parent="1" vertex="1">
          <mxGeometry x="593" y="1240" width="60" height="30" as="geometry" />
        </mxCell>
        <mxCell id="umXWh4qc1a0GtXUPau7t-25" value="HTTP" style="text;html=1;align=center;verticalAlign=middle;whiteSpace=wrap;rounded=0;fontSize=16;rotation=-90;" parent="1" vertex="1">
          <mxGeometry x="690" y="1100" width="60" height="30" as="geometry" />
        </mxCell>
        <mxCell id="umXWh4qc1a0GtXUPau7t-26" value="WebSocket" style="text;html=1;align=center;verticalAlign=middle;whiteSpace=wrap;rounded=0;fontSize=16;rotation=-90;" parent="1" vertex="1">
          <mxGeometry x="345" y="1210" width="60" height="30" as="geometry" />
        </mxCell>
        <mxCell id="umXWh4qc1a0GtXUPau7t-27" value="WebSocket" style="text;html=1;align=center;verticalAlign=middle;whiteSpace=wrap;rounded=0;fontSize=16;rotation=7;" parent="1" vertex="1">
          <mxGeometry x="470" y="1150" width="60" height="30" as="geometry" />
        </mxCell>
        <mxCell id="umXWh4qc1a0GtXUPau7t-28" value="WebSocket" style="text;html=1;align=center;verticalAlign=middle;whiteSpace=wrap;rounded=0;fontSize=16;rotation=0;" parent="1" vertex="1">
          <mxGeometry x="40" y="1130" width="60" height="30" as="geometry" />
        </mxCell>
        <mxCell id="umXWh4qc1a0GtXUPau7t-29" value="AMQP" style="text;html=1;align=center;verticalAlign=middle;whiteSpace=wrap;rounded=0;fontSize=16;rotation=45;" parent="1" vertex="1">
          <mxGeometry x="170" y="770" width="60" height="30" as="geometry" />
        </mxCell>
        <mxCell id="umXWh4qc1a0GtXUPau7t-31" value="AMQP" style="text;html=1;align=center;verticalAlign=middle;whiteSpace=wrap;rounded=0;fontSize=16;rotation=90;" parent="1" vertex="1">
          <mxGeometry x="40" y="1000" width="60" height="30" as="geometry" />
        </mxCell>
        <mxCell id="umXWh4qc1a0GtXUPau7t-32" value="AMQP" style="text;html=1;align=center;verticalAlign=middle;whiteSpace=wrap;rounded=0;fontSize=16;rotation=-90;" parent="1" vertex="1">
          <mxGeometry x="369" y="950" width="60" height="30" as="geometry" />
        </mxCell>
        <mxCell id="umXWh4qc1a0GtXUPau7t-33" value="AMQP" style="text;html=1;align=center;verticalAlign=middle;whiteSpace=wrap;rounded=0;fontSize=16;rotation=-180;" parent="1" vertex="1">
          <mxGeometry x="340" y="1050" width="60" height="30" as="geometry" />
        </mxCell>
        <mxCell id="umXWh4qc1a0GtXUPau7t-34" value="AMQP" style="text;html=1;align=center;verticalAlign=middle;whiteSpace=wrap;rounded=0;fontSize=16;rotation=0;" parent="1" vertex="1">
          <mxGeometry x="240" y="1100" width="60" height="30" as="geometry" />
        </mxCell>
        <mxCell id="umXWh4qc1a0GtXUPau7t-35" value="AMQP" style="text;html=1;align=center;verticalAlign=middle;whiteSpace=wrap;rounded=0;fontSize=16;rotation=0;" parent="1" vertex="1">
          <mxGeometry x="190" y="930" width="60" height="30" as="geometry" />
        </mxCell>
        <mxCell id="umXWh4qc1a0GtXUPau7t-36" value="HTTP" style="text;html=1;align=center;verticalAlign=middle;whiteSpace=wrap;rounded=0;fontSize=16;" parent="1" vertex="1">
          <mxGeometry x="470" y="620" width="60" height="30" as="geometry" />
        </mxCell>
        <mxCell id="umXWh4qc1a0GtXUPau7t-37" value="HTTP" style="text;html=1;align=center;verticalAlign=middle;whiteSpace=wrap;rounded=0;fontSize=16;rotation=90;" parent="1" vertex="1">
          <mxGeometry x="530" y="730" width="60" height="30" as="geometry" />
        </mxCell>
        <mxCell id="umXWh4qc1a0GtXUPau7t-39" value="WebSocket" style="text;html=1;align=center;verticalAlign=middle;whiteSpace=wrap;rounded=0;fontSize=16;rotation=1;" parent="1" vertex="1">
          <mxGeometry x="315" y="610" width="60" height="30" as="geometry" />
        </mxCell>
      </root>
    </mxGraphModel>
  </diagram>
</mxfile>
